:SAMPLES-PER-SECOND 30
:FULLY-SPECIFIED
:DEGREES
80
root  10.7801 39.2306 15.1789 -6.97962 -77.8715 7.18361
RightUpLeg  -19.7209 -0.68418 -8.31977
RightLeg  42.9048 -4.06281 -4.32341
RightFoot  -4.23454 -0.45129 6.80646
RightToes  5.82063e-011 0 -3.6325e-017
Spine  4.26043 -1.56493 -2.39575
Spine1  8.14154 -1.13549 -4.52061
HEad  -1.86294 -6.47983 -5.60495
LeftShoulder1  -0.194777 4.04601 -29.798
LeftArm  -7.40828 -1.29307 -39.4019
LeftForeArm  23.921 -10.0646 -6.63167
LeftHand  -0.0470281 2.8123 1.57032
RightShoulder  -0.637942 -5.49789 25.2799
RightArm  15.2896 -6.80137 51.117
RightForeArm  10.8927 19.2775 4.44008
RightHand  -0.145749 1.26267 -2.69802
LeftUpLeg  -5.84251 10.1248 2.30664
LeftLeg  16.3273 8.57931 -0.0857222
LeftFoot  -10.3874 0.0666862 -0.518036
LeftToes  2.58842e-009 -1.78069e-010 3.24654e-012
81
root  10.2952 39.2475 15.6679 -5.84853 -79.1747 6.2613
RightUpLeg  -21.4109 -2.71906 -5.45362
RightLeg  38.6894 -3.88838 -3.59452
RightFoot  -5.02875 -0.433154 7.21761
RightToes  5.82063e-011 0 -3.6325e-017
Spine  4.02408 -1.86004 -2.49304
Spine1  8.07232 -1.36601 -4.31447
HEad  -2.5098 -6.19154 -3.93529
LeftShoulder1  -0.249551 4.20002 -29.6792
LeftArm  -6.36209 -3.6113 -39.5063
LeftForeArm  22.9441 -10.8472 -6.86146
LeftHand  -0.0355429 4.78397 1.85316
RightShoulder  -0.676508 -5.59078 25.728
RightArm  17.2115 -7.58841 51.7226
RightForeArm  10.7954 18.4214 4.7895
RightHand  -0.200796 0.656574 -3.96843
LeftUpLeg  -4.70344 10.2312 2.21423
LeftLeg  15.9137 9.77201 0.0462622
LeftFoot  -11.4405 0.0680994 -0.595364
LeftToes  2.58842e-009 -1.78069e-010 3.24654e-012
82
root  9.75539 39.2468 16.134 -4.68669 -80.5947 5.55888
RightUpLeg  -22.6748 -4.62254 -2.23117
RightLeg  32.5073 -3.20896 -2.4555
RightFoot  -5.0857 -0.436272 7.34148
RightToes  5.82063e-011 0 -3.6325e-017
Spine  3.27963 -1.94282 -2.60447
Spine1  8.25177 -1.41665 -3.76382
HEad  -2.30038 -6.57022 -3.2895
LeftShoulder1  -0.134419 3.88145 -29.4739
LeftArm  -6.61874 -5.79345 -40.0387
LeftForeArm  23.3851 -10.5667 -6.86382
LeftHand  -0.0277927 5.15028 1.34495
RightShoulder  -0.703322 -5.65101 26.087
RightArm  19.1223 -7.9408 51.9847
RightForeArm  12.2604 16.7579 5.46539
RightHand  -0.190206 1.70399 -3.27076
LeftUpLeg  -3.75587 10.5202 2.12359
LeftLeg  15.5127 10.9211 -0.00176069
LeftFoot  -12.4202 0.0695426 -0.570978
LeftToes  2.58842e-009 -1.78069e-010 3.24654e-012
83
root  9.14388 39.186 16.5984 -6.04409 -81.8129 7.33064
RightUpLeg  -23.1693 -7.23536 0.650333
RightLeg  25.1486 -1.64654 -1.07236
RightFoot  -5.52602 -0.428618 7.68513
RightToes  5.82063e-011 0 -3.6325e-017
Spine  2.62329 -2.2173 -2.9737
Spine1  8.3299 -1.69073 -3.22282
HEad  -2.84689 -6.0466 -2.152
LeftShoulder1  -0.168071 3.97555 -29.483
LeftArm  -6.78551 -7.5567 -40.6166
LeftForeArm  24.1837 -10.4789 -6.81597
LeftHand  -0.0381812 3.37927 1.14597
RightShoulder  -0.658064 -5.52788 25.8173
RightArm  19.8061 -8.39617 52.5847
RightForeArm  14.566 14.9442 6.29226
RightHand  -0.177965 0.725528 -3.46219
LeftUpLeg  -2.69206 10.6274 1.57393
LeftLeg  15.1929 12.0988 -0.0398649
LeftFoot  -13.5289 0.0719602 -0.451796
LeftToes  2.58842e-009 -1.78069e-010 3.24654e-012
84
root  8.49162 39.1021 17.0487 -8.53037 -83.1268 10.2887
RightUpLeg  -23.3159 -10.0079 3.72471
RightLeg  17.2658 -0.615365 -0.450552
RightFoot  -5.58136 -0.439265 7.96026
RightToes  5.82063e-011 0 -3.6325e-017
Spine  1.89623 -2.31252 -3.04805
Spine1  8.54558 -1.75647 -2.76798
HEad  -3.06444 -6.19732 -2.22444
LeftShoulder1  -0.170503 3.98082 -29.6096
LeftArm  -6.45371 -9.53688 -41.1665
LeftForeArm  24.684 -10.1577 -7.0379
LeftHand  -0.0353213 3.72816 1.20054
RightShoulder  -0.628841 -5.43952 25.7737
RightArm  19.117 -8.69886 52.559
RightForeArm  16.241 13.1624 6.97722
RightHand  -0.17633 0.535218 -3.53624
LeftUpLeg  -1.66758 10.5182 0.853342
LeftLeg  14.9183 13.4907 0.110511
LeftFoot  -14.5781 0.0699995 -0.636009
LeftToes  2.58842e-009 -1.78069e-010 3.24654e-012
85
root  7.72768 38.9942 17.502 -13.0989 -84.293 15.1363
RightUpLeg  -22.6047 -10.8645 5.62459
RightLeg  9.35869 -3.15567 0.408276
RightFoot  -5.12623 -0.462895 7.87044
RightToes  5.82063e-011 0 -3.6325e-017
Spine  0.889477 -2.36999 -2.83561
Spine1  9.10164 -1.77307 -2.52968
HEad  -3.90596 -5.76067 -1.19823
LeftShoulder1  -0.107497 3.80542 -29.4664
LeftArm  -5.7674 -10.5173 -42.1382
LeftForeArm  23.9881 -10.3549 -7.21448
LeftHand  -0.035922 4.4737 1.64523
RightShoulder  -0.620378 -5.4019 25.9654
RightArm  17.687 -9.14568 51.9545
RightForeArm  18.2066 11.8428 7.21637
RightHand  -0.186502 0.0278639 -3.94724
LeftUpLeg  -0.202926 10.532 0.118255
LeftLeg  14.4747 14.8217 0.114642
LeftFoot  -15.5066 0.0743398 -0.5015
LeftToes  2.58842e-009 -1.78069e-010 3.24654e-012
86
root  6.89427 38.8126 17.9204 -20.5778 -85.0439 23.1743
RightUpLeg  -21.3597 -5.25226 3.89033
RightLeg  1.5715 -13.267 3.54907
RightFoot  -4.70931 -0.44577 7.14113
RightToes  5.82063e-011 0 -3.6325e-017
Spine  -0.221732 -2.55821 -2.97653
Spine1  9.36459 -1.97115 -2.07777
HEad  -5.17912 -5.20613 -0.249199
LeftShoulder1  -0.0712427 3.70508 -29.2241
LeftArm  -5.94732 -11.3552 -43.4307
LeftForeArm  25.0471 -9.94329 -7.2025
LeftHand  -0.0422812 3.37818 1.41673
RightShoulder  -0.620962 -5.4034 25.962
RightArm  15.8582 -9.58309 51.3237
RightForeArm  20.3914 10.7771 7.11228
RightHand  -0.102594 -0.887177 -2.56221
LeftUpLeg  0.894738 10.3946 -0.891318
LeftLeg  14.3201 15.96 0.189236
LeftFoot  -16.8753 0.0585747 -0.881753
LeftToes  2.58842e-009 -1.78069e-010 3.24654e-012
87
root  5.98806 38.6087 18.3344 -26.141 -85.2147 29.0084
RightUpLeg  -20.8653 -0.782425 2.86581
RightLeg  -3.56565 -22.0355 5.45583
RightFoot  -4.67968 -0.377653 5.93778
RightToes  5.82063e-011 0 -3.6325e-017
Spine  -1.10932 -2.76775 -3.27841
Spine1  9.62819 -2.4168 -0.866685
HEad  -5.38652 -5.18644 -0.370478
LeftShoulder1  -0.086344 3.74435 -29.7349
LeftArm  -4.13651 -12.0349 -44.2847
LeftForeArm  25.6643 -10.396 -7.64832
LeftHand  -0.0295674 3.33419 0.696411
RightShoulder  -0.585933 -5.32093 25.4924
RightArm  14.5556 -10.0784 50.5195
RightForeArm  19.2317 10.0636 6.99604
RightHand  -0.136911 -0.388655 -3.1626
LeftUpLeg  2.31747 10.2671 -1.71052
LeftLeg  14.2593 16.3425 0.235111
LeftFoot  -18.3433 0.0270951 -1.3515
LeftToes  2.58842e-009 -1.78069e-010 3.24654e-012
88
root  4.98733 38.3675 18.7494 -29.4824 -84.8801 32.568
RightUpLeg  -21.5363 -0.0890348 3.09295
RightLeg  -4.16482 -26.8843 5.0925
RightFoot  -5.71729 -0.341358 6.06467
RightToes  5.82063e-011 0 -3.6325e-017
Spine  -2.07515 -3.14412 -2.79536
Spine1  9.81764 -2.78241 -0.849588
HEad  -5.4391 -5.53924 -0.791769
LeftShoulder1  -0.0121843 3.53821 -29.5125
LeftArm  -3.09739 -12.3375 -45.8601
LeftForeArm  26.965 -10.1718 -7.98811
LeftHand  -0.0249263 3.2512 0.32303
RightShoulder  -0.637612 -5.43893 26.2482
RightArm  13.5044 -9.9871 48.7652
RightForeArm  18.0189 9.20369 6.80924
RightHand  -0.142772 -0.403219 -3.23459
LeftUpLeg  3.68483 10.1668 -2.50258
LeftLeg  14.7296 16.3681 0.446722
LeftFoot  -19.8647 -0.0302771 -2.00278
LeftToes  2.58842e-009 -1.78069e-010 3.24654e-012
89
root  3.90527 38.148 19.099 -28.2691 -85.2519 31.5261
RightUpLeg  -21.2939 0.399833 3.81148
RightLeg  -4.2842 -28.6977 5.44167
RightFoot  -5.34724 -0.251328 4.27447
RightToes  5.82063e-011 0 -3.6325e-017
Spine  -2.96137 -3.01533 -2.20985
Spine1  10.3206 -3.11035 0.555996
HEad  -5.56022 -5.90131 -1.33136
LeftShoulder1  -0.00347984 3.51313 -29.8337
LeftArm  -2.41722 -12.3755 -47.7395
LeftForeArm  29.654 -9.83346 -8.24818
LeftHand  -0.0138084 3.86113 -0.519998
RightShoulder  -0.626852 -5.4273 25.8747
RightArm  11.9314 -9.81461 47.7227
RightForeArm  17.936 8.05273 6.46395
RightHand  -0.226833 0.993089 -4.26126
LeftUpLeg  5.37651 10.8877 -1.85459
LeftLeg  15.132 15.3997 -0.276436
LeftFoot  -21.3734 -0.108231 -2.69589
LeftToes  2.58842e-009 -1.78069e-010 3.24654e-012
90
root  2.83719 38.1389 19.4371 -15.414 -85.8198 18.8955
RightUpLeg  -21.1425 0.857553 5.09334
RightLeg  -3.22415 -28.2644 5.3886
RightFoot  -1.54718 0.234709 -2.42767
RightToes  5.82063e-011 0 -3.6325e-017
Spine  -3.52272 -2.71453 0.0387211
Spine1  10.942 -3.45461 1.76555
HEad  -5.53775 -6.13513 -1.70117
LeftShoulder1  -0.0311944 3.5895 -30.3612
LeftArm  0.219733 -11.7076 -49.1766
LeftForeArm  29.728 -10.4277 -8.72648
LeftHand  -0.0132545 2.809 -0.0922237
RightShoulder  -0.628543 -5.43388 25.835
RightArm  10.7742 -9.51025 46.3197
RightForeArm  17.6775 7.4527 5.95993
RightHand  -0.192925 -0.0200643 -4.18629
LeftUpLeg  7.30025 11.4265 -0.395035
LeftLeg  14.5329 14.4154 -0.893056
LeftFoot  -21.6121 -0.223324 -3.93313
LeftToes  2.58842e-009 -1.78069e-010 3.24654e-012
91
root  1.68787 38.1985 19.7508 15.8147 -86.5909 -12.1539
RightUpLeg  -22.1942 0.461958 7.35991
RightLeg  1.1188 -26.9671 3.88761
RightFoot  1.85912 1.02248 -8.89786
RightToes  5.82063e-011 0 -3.6325e-017
Spine  -4.06703 -2.1893 4.13544
Spine1  11.7376 -3.39176 1.87715
HEad  -5.60772 -6.32175 -1.85122
LeftShoulder1  -0.00778114 3.52476 -30.5257
LeftArm  3.35388 -10.3482 -50.5218
LeftForeArm  28.9908 -11.7112 -8.85697
LeftHand  -0.031293 2.96572 0.761274
RightShoulder  -0.714075 -5.65672 26.5152
RightArm  10.4603 -7.93901 44.6868
RightForeArm  16.1097 6.05077 5.79211
RightHand  -0.218947 0.369469 -4.47205
LeftUpLeg  9.10713 14.339 2.8609
LeftLeg  14.9271 10.9731 -1.71675
LeftFoot  -21.4351 -0.378948 -5.71492
LeftToes  2.58842e-009 -1.78069e-010 3.24654e-012
